<?xml version="1.0" encoding="UTF-8" standalone="no"?>
<!-- Created with Inkscape (http://www.inkscape.org/) -->

<svg
   xmlns:dc="http://purl.org/dc/elements/1.1/"
   xmlns:cc="http://creativecommons.org/ns#"
   xmlns:rdf="http://www.w3.org/1999/02/22-rdf-syntax-ns#"
   xmlns:svg="http://www.w3.org/2000/svg"
   xmlns="http://www.w3.org/2000/svg"
   xmlns:xlink="http://www.w3.org/1999/xlink"
   xmlns:sodipodi="http://sodipodi.sourceforge.net/DTD/sodipodi-0.dtd"
   xmlns:inkscape="http://www.inkscape.org/namespaces/inkscape"
   width="141.09419mm"
   height="55.651672mm"
   viewBox="0 0 499.94005 197.19096"
   id="svg2"
   version="1.1"
   inkscape:version="0.91 r13725"
   sodipodi:docname="verace.svg"
   inkscape:export-filename="C:\Users\Jeff\Dropbox\__temp-logo\verace.png"
   inkscape:export-xdpi="54.009998"
   inkscape:export-ydpi="54.009998">
  <defs
     id="defs4" />
  <sodipodi:namedview
     id="base"
     pagecolor="#ffffff"
     bordercolor="#666666"
     borderopacity="1.0"
     inkscape:pageopacity="0.0"
     inkscape:pageshadow="2"
     inkscape:zoom="1.4"
     inkscape:cx="250.29879"
     inkscape:cy="114.48372"
     inkscape:document-units="px"
     inkscape:current-layer="layer1"
     showgrid="false"
     inkscape:window-width="1600"
     inkscape:window-height="838"
     inkscape:window-x="-8"
     inkscape:window-y="-8"
     inkscape:window-maximized="1"
     fit-margin-top="0"
     fit-margin-left="0"
     fit-margin-right="0"
     fit-margin-bottom="0" />
  <metadata
     id="metadata7">
    <rdf:RDF>
      <cc:Work
         rdf:about="">
        <dc:format>image/svg+xml</dc:format>
        <dc:type
           rdf:resource="http://purl.org/dc/dcmitype/StillImage" />
        <dc:title></dc:title>
      </cc:Work>
    </rdf:RDF>
  </metadata>
  <g
     inkscape:label="Layer 1"
     inkscape:groupmode="layer"
     id="layer1"
     transform="translate(-122.07722,-427.58563)">
    <g
       id="g4461"
       transform="matrix(0.96995047,0,0,1.0001544,78.290882,91.760737)">
      <g
         id="g4445">
        <rect
           style="fill:#939589;fill-opacity:0.27750896;fill-rule:nonzero;stroke:#7c803a;stroke-width:4;stroke-linecap:round;stroke-linejoin:round;stroke-miterlimit:4;stroke-dasharray:none;stroke-opacity:1"
           id="rect4432"
           width="511.42844"
           height="128.57138"
           x="47.142857"
           y="402.36218"
           ry="15.079312" />
        <g
           id="g4418"
           transform="matrix(3.2309115,0,0,3.1018315,-117.90887,-1107.3908)">
          <path
             sodipodi:nodetypes="cssc"
             inkscape:connector-curvature="0"
             id="path4396"
             d="m 61.45918,523.55904 -5.673628,0 c -0.439653,0 -0.793598,-0.35394 -0.793598,-0.7936 l 0,-14.06789"
             style="font-style:normal;font-variant:normal;font-weight:normal;font-stretch:normal;font-size:medium;line-height:125%;font-family:'Segoe Script';-inkscape-font-specification:'Segoe Script';letter-spacing:0px;word-spacing:0px;fill:none;fill-opacity:1;fill-rule:nonzero;stroke:#000000;stroke-width:3.60873652;stroke-linecap:round;stroke-linejoin:miter;stroke-miterlimit:4;stroke-dasharray:none;stroke-opacity:1" />
          <path
             sodipodi:nodetypes="cssc"
             inkscape:connector-curvature="0"
             id="path4392"
             d="m 86.383223,511.54901 0,11.21643 c 0,0.43966 -0.35395,0.7936 -0.7936,0.7936 l -6.22049,0"
             style="font-style:normal;font-variant:normal;font-weight:normal;font-stretch:normal;font-size:medium;line-height:125%;font-family:'Segoe Script';-inkscape-font-specification:'Segoe Script';letter-spacing:0px;word-spacing:0px;fill:none;fill-opacity:1;fill-rule:nonzero;stroke:#000000;stroke-width:3.60873652;stroke-linecap:round;stroke-linejoin:miter;stroke-miterlimit:4;stroke-dasharray:none;stroke-opacity:1" />
          <path
             sodipodi:nodetypes="cc"
             inkscape:connector-curvature="0"
             id="rect4200-4"
             d="m 67.890853,492.16778 9.32972,0"
             style="font-style:normal;font-variant:normal;font-weight:normal;font-stretch:normal;font-size:medium;line-height:125%;font-family:'Segoe Script';-inkscape-font-specification:'Segoe Script';letter-spacing:0px;word-spacing:0px;fill:none;fill-opacity:1;fill-rule:nonzero;stroke:#000000;stroke-width:3.60873652;stroke-linecap:round;stroke-linejoin:miter;stroke-miterlimit:4;stroke-dasharray:none;stroke-opacity:1" />
          <path
             d="m 101.29688,499.63086 a 2.1504993,2.1504993 0 0 0 -0.13086,0.004 c -0.60252,0.0365 -1.199295,0.14592 -1.781254,0.32226 a 2.1504993,2.1504993 0 0 0 -0.01758,0.006 c -0.55908,0.17472 -1.101738,0.40943 -1.623047,0.69531 a 2.1504993,2.1504993 0 0 0 -0.02734,0.0137 c -0.487148,0.27604 -0.954028,0.59069 -1.400391,0.9414 a 2.1504993,2.1504993 0 0 0 -0.0293,0.0254 c -0.426665,0.34766 -0.824138,0.71707 -1.185547,1.11133 a 2.1504993,2.1504993 0 0 0 -0.04883,0.0566 c -1.675493,1.96191 -2.912138,4.06319 -3.648437,6.28711 a 2.1504993,2.1504993 0 0 0 -0.0039,0.0117 c -0.693837,2.13933 -1.042969,4.35769 -1.042969,6.62109 0,2.78343 0.663624,5.23044 2.30664,6.9668 a 2.1504993,2.1504993 0 0 0 0.0098,0.008 c 1.600801,1.67275 3.907907,2.47544 6.402344,2.47852 1.188958,0.0144 2.393868,-0.16257 3.595708,-0.51172 l 0.008,-0.002 c 1.19021,-0.34278 2.36603,-0.82205 3.52343,-1.42969 a 2.1504993,2.1504993 0 0 0 0.0176,-0.01 c 1.14011,-0.6128 2.25766,-1.32917 3.35157,-2.14258 a 2.1504993,2.1504993 0 0 0 0.004,-0.002 c 0.86355,-0.64493 1.67322,-1.35187 2.47656,-2.06641 -0.003,0.0478 -0.009,0.099 -0.0117,0.14649 -0.0278,0.41796 -0.0469,0.85269 -0.0606,1.30469 a 2.1504993,2.1504993 0 0 0 -0.002,0.0644 c 0,0.4748 0.0218,0.98579 0.0625,1.53711 8e-5,0.001 -9e-5,0.003 0,0.004 0.069,1.12312 0.20994,2.08215 0.72656,3.02929 0.51245,0.9395 1.83257,1.81748 3.03515,1.76563 0.42835,-0.0117 0.60029,-0.0624 0.84961,-0.1211 0.28679,-0.0675 0.57344,-0.15236 0.86133,-0.24804 0.003,-9.9e-4 0.007,-9.6e-4 0.01,-0.002 0.32681,-0.10486 0.64222,-0.2365 0.94922,-0.39648 0.44652,-0.20742 1.14427,-0.54391 1.4375,-1.66211 0.11713,-0.37095 0.21916,-0.74125 0.27343,-1.12109 l -0.0137,0.0801 c 0.0357,-0.19615 0.0982,-0.45888 0.1875,-0.77148 0.18048,-0.61263 0.36528,-1.19167 0.55469,-1.73828 l 0.008,-0.0195 c 0.002,-0.006 0.004,-0.0134 0.006,-0.0195 0.20518,-0.55435 0.41099,-1.08979 0.61524,-1.60743 1.10122,-2.52282 2.37195,-4.45788 3.75586,-5.84179 a 2.1504993,2.1504993 0 0 0 0.008,-0.006 c 1.28778,-1.29792 2.76214,-1.95648 4.77734,-2.0918 0.0401,0.002 0.0472,8.6e-4 0.14453,0.008 a 2.1504993,2.1504993 0 0 0 0.15235,0.006 c 0.13109,0 0.27282,0.006 0.42382,0.0156 a 2.1504993,2.1504993 0 0 0 0.008,0 c 0.2027,0.0127 0.39325,0.0246 0.56836,0.0371 a 2.1504993,2.1504993 0 0 0 0.15234,0.006 l 0.39063,0 c 0.18783,0 0.37612,-0.1268 0.57031,-0.1875 -0.28277,0.50857 -0.58329,0.99922 -0.83594,1.53711 a 2.1504993,2.1504993 0 0 0 -0.008,0.0137 c -0.43956,0.95238 -0.79776,1.93618 -1.07617,2.94726 -0.29398,1.06761 -0.44922,2.14132 -0.44922,3.20703 0,0.62516 0.0813,1.25631 0.22265,1.91602 a 2.1504993,2.1504993 0 0 0 0.0117,0.0469 c 0.16833,0.70695 0.4177,1.38782 0.7461,2.02734 a 2.1504993,2.1504993 0 0 0 0.0195,0.041 c 0.36696,0.67887 0.84192,1.29563 1.41406,1.80859 a 2.1504993,2.1504993 0 0 0 0.0586,0.0508 c 0.76073,0.63394 1.79277,0.98633 2.76368,0.98633 0.56396,0 1.11759,-0.081 1.67773,-0.2168 a 2.1504993,2.1504993 0 0 0 0.0449,-0.0117 c 0.52393,-0.13869 1.04032,-0.30826 1.54688,-0.50781 a 2.1504993,2.1504993 0 0 0 0.0293,-0.0117 c 0.50074,-0.20618 0.97932,-0.43084 1.43555,-0.67383 0.43867,-0.22693 0.8314,-0.44651 1.18555,-0.67187 a 2.1504993,2.1504993 0 0 0 0.0391,-0.0254 c 0.57484,-0.38324 1.13185,-0.80146 1.67187,-1.25391 0.51298,-0.42978 1.00643,-0.87494 1.48047,-1.33398 l 0.006,-0.006 c 0.21367,-0.2015 0.40936,-0.39841 0.61524,-0.59766 0.28988,0.31636 0.54083,0.67061 0.88281,0.92969 0.58403,0.44245 1.22421,0.80126 1.9043,1.05859 a 2.1504993,2.1504993 0 0 0 0.0664,0.0234 c 0.69262,0.23694 1.41753,0.36555 2.14649,0.36719 1.25922,0.0142 2.47962,-0.16813 3.61914,-0.57032 a 2.1504993,2.1504993 0 0 0 0.0176,-0.006 c 1.05534,-0.38237 2.06588,-0.8872 3.01953,-1.50782 0.24455,-0.15916 0.46558,-0.37206 0.70507,-0.54297 0.023,0.08 0.01,0.16869 0.0352,0.24805 a 2.1504993,2.1504993 0 0 0 0.0117,0.0312 c 0.33521,1.00563 0.83337,1.93506 1.49219,2.73633 a 2.1504993,2.1504993 0 0 0 0.0332,0.041 c 0.68717,0.79565 1.53755,1.43975 2.49023,1.89844 a 2.1504993,2.1504993 0 0 0 0.0137,0.006 c 1.04291,0.49302 2.20575,0.70096 3.38281,0.66992 1.648,-0.004 3.24485,-0.23717 4.75586,-0.7207 a 2.1504993,2.1504993 0 0 0 0.0117,-0.004 c 1.46897,-0.47996 2.85646,-1.11929 4.14843,-1.91211 a 2.1504993,2.1504993 0 0 0 0.0137,-0.008 c 1.25015,-0.78133 2.57221,-1.75573 3.98242,-2.92187 a 2.1504993,2.1504993 0 0 0 0.002,-0.002 c 0.67829,-0.5631 1.27194,-1.0531 1.78516,-1.47656 0.34748,1.48487 0.88835,2.84955 1.88086,3.89844 a 2.1504993,2.1504993 0 0 0 0.01,0.008 c 1.6008,1.67276 3.90791,2.47544 6.40235,2.47852 1.18895,0.0144 2.39386,-0.16258 3.5957,-0.51172 l 0.008,-0.002 c 1.19022,-0.34278 2.36604,-0.82205 3.52344,-1.42969 a 2.1504993,2.1504993 0 0 0 0.0176,-0.01 c 1.14011,-0.6128 2.25766,-1.32917 3.35156,-2.14258 a 2.1504993,2.1504993 0 0 0 0.004,-0.002 c 1.09036,-0.81433 2.13277,-1.68424 3.12695,-2.60937 1.00596,-0.93707 1.95168,-1.92366 2.83594,-2.95899 l 0.006,-0.008 c 0.8902,-1.02766 1.69878,-2.06254 2.42187,-3.10547 a 2.1504993,2.1504993 0 0 0 0.0937,-0.14648 c 0.34793,-0.60097 0.71875,-0.86675 0.71875,-2.11329 0,-0.35003 -0.006,-0.81671 -0.39062,-1.42578 -0.38466,-0.60906 -1.34857,-1.0957 -1.99414,-1.0957 -0.84371,0 -1.27631,0.27955 -1.67578,0.52148 -0.39948,0.24194 -0.74994,0.52095 -1.12891,0.85352 a 2.1504993,2.1504993 0 0 0 -0.10156,0.0957 l -1.05469,1.05469 c -0.85934,0.85934 -1.72481,1.6782 -2.59375,2.45899 -0.83379,0.73633 -1.77641,1.48897 -2.82422,2.2539 -0.54543,0.39129 -1.13979,0.78226 -1.78125,1.16992 -0.59712,0.35599 -1.2178,0.67959 -1.86328,0.96875 -0.62857,0.26892 -1.26446,0.48536 -1.91016,0.65235 -0.58989,0.15256 -1.15347,0.22461 -1.70703,0.22461 -0.96376,0 -1.42791,-0.20966 -1.73047,-0.46094 -0.0697,-0.0621 -0.0621,-0.28468 -0.11523,-0.36328 0.46987,-0.33722 1.00035,-0.68288 1.40039,-1.01367 a 2.1504993,2.1504993 0 0 0 0.002,-0.002 c 0.69197,-0.57446 1.32012,-1.09726 1.88281,-1.56836 0.92701,-0.77705 1.73139,-1.51196 2.41993,-2.21484 a 2.1504993,2.1504993 0 0 0 0.0156,-0.0156 c 0.70196,-0.73122 1.29246,-1.46007 1.76758,-2.2129 0.48028,-0.75339 0.8496,-1.53182 1.07422,-2.3496 0.22779,-0.79606 0.33078,-1.62446 0.29492,-2.44922 a 2.1504993,2.1504993 0 0 0 0,-0.0117 c -0.0387,-0.7943 -0.23483,-1.58387 -0.58984,-2.30078 -0.29494,-0.61978 -0.68416,-1.19276 -1.14258,-1.72266 -0.33581,-0.40419 -0.75514,-0.7032 -1.17578,-0.9043 -0.29037,-0.14977 -0.59205,-0.28132 -0.9043,-0.3789 -0.30078,-0.094 -0.6047,-0.16759 -0.92187,-0.21289 -0.23906,-0.0342 -0.45104,-0.0606 -0.73438,-0.0606 a 2.1504993,2.1504993 0 0 0 -0.13086,0.004 c -0.60252,0.0365 -1.19929,0.14592 -1.78125,0.32226 a 2.1504993,2.1504993 0 0 0 -0.0176,0.006 c -0.55908,0.17472 -1.10173,0.40942 -1.62304,0.69531 a 2.1504993,2.1504993 0 0 0 -0.0274,0.0137 c -0.48716,0.27605 -0.95403,0.59069 -1.40039,0.9414 a 2.1504993,2.1504993 0 0 0 -0.0293,0.0254 c -0.42668,0.34767 -0.82414,0.71707 -1.18554,1.11133 a 2.1504993,2.1504993 0 0 0 -0.0488,0.0566 c -1.67548,1.96191 -2.91214,4.06319 -3.64844,6.28711 a 2.1504993,2.1504993 0 0 0 -0.004,0.0117 c -0.18412,0.56768 -0.13089,0.61001 -0.14258,0.83984 -0.36161,0.32729 -0.71761,0.64976 -1.10547,0.99805 -0.6283,0.56286 -1.29461,1.16461 -2,1.80469 -1.3462,1.22155 -2.6608,2.27569 -3.94141,3.16601 a 2.1504993,2.1504993 0 0 0 -0.0156,0.01 c -1.24642,0.8819 -2.52876,1.57774 -3.85742,2.09765 -1.24529,0.48729 -2.5482,0.73047 -3.9629,0.73047 -0.11833,0 -0.23668,-0.0213 -0.57031,-0.35742 -0.36078,-0.40722 -0.40429,-0.60166 -0.40429,-0.73437 0,-0.41147 0.0356,-0.88045 0.11328,-1.40235 a 2.1504993,2.1504993 0 0 0 0,-0.006 c 0.0803,-0.55055 0.19048,-1.09568 0.32812,-1.63476 a 2.1504993,2.1504993 0 0 0 0.002,-0.01 c 0.13665,-0.5466 0.30104,-1.07215 0.49218,-1.57812 0.18984,-0.50251 0.38854,-0.93454 0.58985,-1.29688 a 2.1504993,2.1504993 0 0 0 0.01,-0.0176 c 0.30871,-0.56802 0.59444,-1.06645 0.85547,-1.49414 0.0839,-0.135 0.14586,-0.2044 0.22461,-0.32226 0.10559,0.27726 0.21742,0.55142 0.36523,0.85937 a 2.1504993,2.1504993 0 0 0 0.008,0.0156 c 0.49931,1.01944 1.65917,2.16211 3.10351,2.16211 0.82219,0 1.60149,-0.45278 2.02539,-0.90625 0.4239,-0.45347 0.63767,-0.9026 0.81641,-1.35938 0.29024,-0.74174 0.5,-1.42554 0.5,-2.24804 0,-1.11496 -0.34003,-1.77541 -0.7793,-2.72657 l -0.002,-0.004 c -0.22829,-0.50182 -0.48405,-0.98042 -0.76563,-1.43555 -0.27161,-0.45152 -0.56041,-0.88128 -0.87109,-1.28516 -0.6845,-0.88985 -1.48582,-1.85547 -3.0918,-1.85547 -1.51843,0 -2.78453,0.74314 -3.92578,1.73829 -1.03954,0.89576 -1.95087,1.84986 -2.71679,2.87109 a 2.1504993,2.1504993 0 0 0 -0.0176,0.0254 c -1.10605,1.51788 -1.92402,3.05793 -2.64649,4.58789 -0.60118,0.61103 -1.19208,1.20418 -1.76758,1.72656 -0.77795,0.69317 -1.55333,1.30057 -2.32421,1.82617 -0.73075,0.4941 -1.4328,0.87085 -2.10352,1.14454 -0.61227,0.23761 -1.14948,0.33789 -1.64648,0.33789 -0.11125,0 -0.13109,-0.0148 -0.16993,-0.0371 -0.13254,-0.0929 -0.24725,-0.19812 -0.35937,-0.34961 -0.12565,-0.18694 -0.22622,-0.39057 -0.30469,-0.63672 -0.0864,-0.28489 -0.12109,-0.52322 -0.12109,-0.73242 0,-0.62393 0.0671,-1.21073 0.19726,-1.77344 4.3e-4,-0.002 -4.2e-4,-0.004 0,-0.006 0.17727,-0.7222 0.36619,-1.51874 0.56641,-2.38086 0.22403,-0.82145 0.36914,-1.52966 0.36914,-2.28515 0,-0.57432 -0.11803,-0.9342 -0.24805,-1.32422 -0.1255,-0.37654 -0.28444,-0.74326 -0.46875,-1.09961 -0.17277,-0.35822 -0.3689,-0.70213 -0.5957,-1.02344 -0.23357,-0.33089 -0.44264,-0.64469 -0.97266,-0.99805 a 2.1504993,2.1504993 0 0 0 -0.0723,-0.0449 c -0.43291,-0.26454 -0.90936,-0.449 -1.39258,-0.5625 -0.38296,-0.10108 -0.77503,-0.17278 -1.16992,-0.20898 -0.37573,-0.0465 -0.75434,-0.0723 -1.13672,-0.0723 l -0.85938,0 c -0.93938,0 -1.82875,0.24286 -2.71679,0.62109 -0.84728,0.36088 -1.68168,0.82661 -2.50781,1.38672 -0.002,0.001 -0.004,0.003 -0.006,0.004 -0.81885,0.54277 -1.60198,1.16242 -2.34961,1.85156 -0.75085,0.67931 -1.41895,1.38035 -1.9961,2.10938 a 2.1504993,2.1504993 0 0 0 -0.008,0.008 c -0.008,0.0103 -0.0154,0.0248 -0.0234,0.0352 -7.9e-4,-0.99861 -0.64386,-2.02469 -1.34961,-2.54102 -0.51228,-0.39038 -1.08244,-0.68243 -1.68359,-0.88281 -0.57803,-0.19268 -1.17694,-0.32262 -1.78906,-0.39063 -0.54477,-0.0605 -1.04461,-0.089 -1.53125,-0.0703 a 2.1504993,2.1504993 0 0 0 -0.0371,0.002 c -1.15691,0.0643 -2.24147,0.4554 -3.46094,1.03321 -1.24371,0.54339 -2.418,1.36928 -3.57617,2.43945 -0.14208,0.12974 -0.24427,0.34539 -0.38281,0.48242 0.0164,-0.16145 0.0438,-0.32987 0.0547,-0.48828 a 2.1504993,2.1504993 0 0 0 0.002,-0.006 c 0.0303,-0.45391 0.0382,-0.88569 0.0215,-1.30273 a 2.1504993,2.1504993 0 0 0 -0.0156,-0.18164 c -0.0728,-0.58231 -0.29581,-0.95595 -0.50586,-1.26172 -0.18089,-0.28311 -0.39065,-0.53222 -0.61719,-0.74219 -0.27724,-0.26843 -0.61285,-0.47905 -0.95899,-0.63867 -0.37145,-0.18929 -0.81829,-0.35352 -1.33984,-0.35352 a 2.1504993,2.1504993 0 0 0 -0.11328,0.004 c -0.90705,0.0477 -1.95994,0.43958 -2.64258,1.22461 a 2.1504993,2.1504993 0 0 0 -0.0352,0.041 c -0.57161,0.69194 -0.82592,1.43329 -1.01368,2.23047 -0.16738,0.63238 -0.31235,1.34925 -0.44726,2.19922 -0.0435,0.27012 -0.0803,0.53786 -0.11914,0.81055 l -0.6836,0.68359 c -0.85931,0.85932 -1.7248,1.67819 -2.59375,2.45899 -0.83376,0.73632 -1.7764,1.48897 -2.82422,2.2539 -0.54542,0.39129 -1.13978,0.78225 -1.78124,1.16992 -0.59715,0.356 -1.2178,0.6796 -1.86329,0.96875 -0.62855,0.26892 -1.26445,0.48536 -1.91015,0.65235 -0.58991,0.15256 -1.15348,0.22461 -1.707034,0.22461 -0.963772,0 -1.42791,-0.20966 -1.730468,-0.46094 -0.06974,-0.0621 -0.06214,-0.28468 -0.115235,-0.36328 0.469871,-0.33722 1.000353,-0.68288 1.400391,-1.01367 a 2.1504993,2.1504993 0 0 0 0.002,-0.002 c 0.691953,-0.57446 1.320113,-1.09726 1.882813,-1.56836 0.92701,-0.77705 1.7314,-1.51197 2.41992,-2.21484 a 2.1504993,2.1504993 0 0 0 0.0156,-0.0156 c 0.70195,-0.73121 1.29244,-1.46004 1.76757,-2.2129 0.48031,-0.75341 0.84961,-1.53184 1.07422,-2.3496 0.22779,-0.79604 0.33078,-1.62443 0.29492,-2.44922 a 2.1504993,2.1504993 0 0 0 0,-0.0117 c -0.0387,-0.7943 -0.2348,-1.58385 -0.58984,-2.30078 -0.29494,-0.61978 -0.68417,-1.19277 -1.14258,-1.72266 -0.33578,-0.40412 -0.75516,-0.7032 -1.17578,-0.9043 -0.29038,-0.14977 -0.59209,-0.28133 -0.9043,-0.3789 -0.3008,-0.094 -0.6047,-0.16759 -0.92187,-0.21289 -0.23905,-0.0342 -0.45102,-0.0606 -0.73437,-0.0606 z m 12.94921,8.95312 c -0.0348,0.0145 -0.29737,0.17392 -0.5,0.31055 l 0.006,-0.01 c 0.1495,-0.12548 0.53985,-0.31979 0.49414,-0.30079 z m 29.34375,0.50782 c -0.0591,1.55946 -0.42296,3.00326 -1.1914,4.40429 -0.59488,0.99751 -1.3006,1.86898 -2.13867,2.63086 -0.8135,0.73833 -1.70466,1.3107 -2.70704,1.73828 -0.002,8e-4 -0.002,-7.9e-4 -0.004,0 -0.0645,0.0271 -0.0619,0.0114 -0.12305,0.0352 0.0184,-0.0992 0.0107,-0.15225 0.0391,-0.26562 a 2.1504993,2.1504993 0 0 0 0.004,-0.0117 c 0.10473,-0.42942 0.24905,-0.88271 0.4375,-1.35938 a 2.1504993,2.1504993 0 0 0 0.006,-0.0156 c 0.19069,-0.49358 0.41772,-0.99318 0.68164,-1.49805 a 2.1504993,2.1504993 0 0 0 0.008,-0.0176 c 0.27654,-0.54105 0.55708,-1.04755 0.83985,-1.51953 l 0.002,-0.002 c 0.002,-0.004 0.004,-0.008 0.006,-0.0117 0.28648,-0.46902 0.56776,-0.889 0.8418,-1.26367 l 0.006,-0.008 c 0.29186,-0.38099 0.55213,-0.68299 0.76171,-0.89257 a 2.1504993,2.1504993 0 0 0 0.0293,-0.0274 c 0.31571,-0.32739 0.6338,-0.63522 0.95703,-0.92383 a 2.1504993,2.1504993 0 0 0 0.004,-0.002 c 0.28792,-0.25813 0.5736,-0.47133 0.85937,-0.64648 a 2.1504993,2.1504993 0 0 0 0.043,-0.0273 c 0.22686,-0.14635 0.43459,-0.2365 0.63867,-0.3164 z m -9.51562,1 -0.0898,0.14843 c 0.0253,-0.038 0.0368,-0.0805 0.0605,-0.11914 0.006,-0.01 0.0238,-0.0193 0.0293,-0.0293 z m 22.96289,7.20508 c -7e-5,0.005 0.002,0.009 0.002,0.0137 -2e-5,0.008 -0.002,0.01 -0.002,0.0176 l 0,-0.0312 z"
             inkscape:href="#text4136"
             id="path4178"
             style="font-style:normal;font-weight:normal;font-size:40px;line-height:125%;font-family:sans-serif;letter-spacing:0px;word-spacing:0px;fill:#000000;fill-opacity:1;stroke:none;stroke-width:1px;stroke-linecap:butt;stroke-linejoin:miter;stroke-opacity:1"
             xlink:href="#text4136"
             inkscape:original="M 101.29688 501.78125 C 100.86719 501.80729 100.4375 501.88542 100.00781 502.01562 C 99.591146 502.14583 99.18099 502.32161 98.777344 502.54297 C 98.386719 502.76432 98.009115 503.01823 97.644531 503.30469 C 97.292969 503.59115 96.973958 503.89062 96.6875 504.20312 C 95.164062 505.98698 94.083333 507.84245 93.445312 509.76953 C 92.820312 511.69661 92.507812 513.68229 92.507812 515.72656 C 92.507812 518.17448 93.080729 520.00391 94.226562 521.21484 C 95.385417 522.42578 97.00651 523.03125 99.089844 523.03125 C 100.05339 523.04427 101.04948 522.90104 102.07812 522.60156 C 103.11979 522.30208 104.16146 521.87891 105.20312 521.33203 C 106.24479 520.77214 107.27344 520.11458 108.28906 519.35938 C 109.31771 518.59115 110.30078 517.77083 111.23828 516.89844 C 112.1888 516.01302 113.08073 515.08203 113.91406 514.10547 C 114.25198 513.71556 114.51524 513.32545 114.82617 512.93555 C 114.7763 513.36447 114.71962 513.79675 114.67578 514.22266 C 114.58464 515.10807 114.50651 515.88932 114.44141 516.56641 C 114.38932 517.11328 114.33724 517.60807 114.28516 518.05078 C 114.24609 518.48047 114.21354 518.89714 114.1875 519.30078 C 114.16146 519.69141 114.14193 520.10156 114.12891 520.53125 C 114.12891 520.94792 114.14844 521.41667 114.1875 521.9375 C 114.30469 523.85156 114.8125 524.78255 115.71094 524.73047 C 115.78906 524.73047 115.9388 524.70443 116.16016 524.65234 C 116.38151 524.60026 116.60938 524.53516 116.84375 524.45703 C 117.09115 524.37891 117.3125 524.28776 117.50781 524.18359 C 117.70312 524.09245 117.8138 523.99479 117.83984 523.89062 C 117.94401 523.57812 118.01562 523.28516 118.05469 523.01172 C 118.10677 522.72526 118.1849 522.39974 118.28906 522.03516 C 118.48438 521.37109 118.6862 520.73958 118.89453 520.14062 C 119.11589 519.54167 119.33724 518.96224 119.55859 518.40234 C 120.74349 515.68099 122.14974 513.50651 123.77734 511.87891 C 125.43099 510.21224 127.5013 509.30078 129.98828 509.14453 C 130.06641 509.14453 130.19661 509.15104 130.37891 509.16406 C 130.5612 509.16406 130.75 509.17057 130.94531 509.18359 C 131.15365 509.19661 131.34896 509.20964 131.53125 509.22266 L 131.92188 509.22266 C 132.03906 509.22266 132.13021 509.16406 132.19531 509.04688 C 132.27344 508.92969 132.33854 508.79948 132.39062 508.65625 C 132.44271 508.5 132.47526 508.35026 132.48828 508.20703 C 132.5013 508.05078 132.50781 507.93359 132.50781 507.85547 C 132.50781 507.52995 132.35156 507.25651 132.03906 507.03516 C 131.73958 506.80078 131.375 506.61198 130.94531 506.46875 C 130.51562 506.32552 130.06641 506.22786 129.59766 506.17578 C 129.12891 506.1237 128.72526 506.10417 128.38672 506.11719 C 127.68359 506.15625 126.78516 506.4362 125.69141 506.95703 C 124.72786 507.3737 123.72526 508.0638 122.68359 509.02734 C 121.64193 509.97786 120.66536 511.20833 119.75391 512.71875 C 119.51953 513.10938 119.32422 513.44141 119.16797 513.71484 C 119.01172 513.98828 118.86849 514.24219 118.73828 514.47656 C 118.60807 514.69792 118.48438 514.91276 118.36719 515.12109 C 118.26302 515.32943 118.14583 515.57031 118.01562 515.84375 C 117.88542 516.10417 117.73568 516.41016 117.56641 516.76172 C 117.41016 517.11328 117.22135 517.53646 117 518.03125 C 117.10417 517.19792 117.1888 516.5013 117.25391 515.94141 C 117.31901 515.36849 117.38411 514.83464 117.44922 514.33984 C 117.51432 513.84505 117.59245 513.33724 117.68359 512.81641 C 117.78776 512.28255 117.93099 511.64453 118.11328 510.90234 C 118.20443 510.52474 118.29557 510.1276 118.38672 509.71094 C 118.47786 509.29427 118.55599 508.88411 118.62109 508.48047 C 118.6862 508.0638 118.73177 507.66667 118.75781 507.28906 C 118.78385 506.89844 118.79036 506.54036 118.77734 506.21484 C 118.76432 506.11068 118.71224 505.99349 118.62109 505.86328 C 118.54297 505.73307 118.4388 505.60938 118.30859 505.49219 C 118.19141 505.375 118.05469 505.28385 117.89844 505.21875 C 117.75521 505.14062 117.61849 505.10156 117.48828 505.10156 C 116.99349 505.1276 116.61589 505.29036 116.35547 505.58984 C 116.10807 505.88932 115.91276 506.34505 115.76953 506.95703 C 115.6263 507.49089 115.48958 508.16797 115.35938 508.98828 C 115.28085 509.47516 115.20856 510.01122 115.13477 510.53125 C 115.07907 510.578 115.06648 510.5579 115.00781 510.60938 L 113.95312 511.66406 C 113.06771 512.54948 112.17578 513.39583 111.27734 514.20312 C 110.37891 514.9974 109.3763 515.79818 108.26953 516.60547 C 107.67057 517.03516 107.02604 517.45833 106.33594 517.875 C 105.65885 518.27865 104.95573 518.64323 104.22656 518.96875 C 103.4974 519.28125 102.75521 519.53516 102 519.73047 C 101.24479 519.92578 100.49609 520.02344 99.753906 520.02344 C 98.425781 520.02344 97.377604 519.69792 96.609375 519.04688 C 95.854167 518.38281 95.476562 517.41927 95.476562 516.15625 C 96.440104 515.53125 97.260417 514.9388 97.9375 514.37891 C 98.627604 513.80599 99.252604 513.28516 99.8125 512.81641 C 100.69792 512.07422 101.45312 511.38411 102.07812 510.74609 C 102.70312 510.09505 103.20443 509.47005 103.58203 508.87109 C 103.97266 508.25911 104.24609 507.66667 104.40234 507.09375 C 104.57161 506.50781 104.64323 505.91536 104.61719 505.31641 C 104.59115 504.78255 104.46745 504.29427 104.24609 503.85156 C 104.03776 503.40885 103.7513 502.97917 103.38672 502.5625 C 103.26953 502.41927 103.11328 502.30208 102.91797 502.21094 C 102.72266 502.10677 102.52083 502.02214 102.3125 501.95703 C 102.10417 501.89193 101.90885 501.84635 101.72656 501.82031 C 101.54427 501.79427 101.40104 501.78125 101.29688 501.78125 z M 190.125 501.78125 C 189.69531 501.80729 189.26562 501.88542 188.83594 502.01562 C 188.41927 502.14583 188.00911 502.32161 187.60547 502.54297 C 187.21484 502.76432 186.83724 503.01823 186.47266 503.30469 C 186.12109 503.59115 185.80208 503.89062 185.51562 504.20312 C 183.99219 505.98698 182.91146 507.84245 182.27344 509.76953 C 182.13922 510.18337 182.17766 510.62958 182.07227 511.04883 C 181.5452 511.5274 180.99904 512.02119 180.41797 512.54297 C 179.79297 513.10286 179.12891 513.70182 178.42578 514.33984 C 177.01953 515.61589 175.63281 516.72917 174.26562 517.67969 C 172.88542 518.65625 171.44661 519.4375 169.94922 520.02344 C 168.45182 520.60938 166.86979 520.90234 165.20312 520.90234 C 164.4349 520.90234 163.71875 520.55729 163.05469 519.86719 C 162.40365 519.15104 162.07812 518.41536 162.07812 517.66016 C 162.07812 517.1263 162.1237 516.55339 162.21484 515.94141 C 162.30599 515.31641 162.42969 514.69792 162.58594 514.08594 C 162.74219 513.46094 162.93099 512.85547 163.15234 512.26953 C 163.3737 511.68359 163.61458 511.15625 163.875 510.6875 C 164.20052 510.08854 164.50651 509.55469 164.79297 509.08594 C 165.09245 508.60417 165.37891 508.19401 165.65234 507.85547 C 166.22526 507.16536 166.94141 506.74219 167.80078 506.58594 C 168.00911 506.92448 168.26302 507.48438 168.5625 508.26562 C 168.65365 508.52604 168.73177 508.77344 168.79688 509.00781 C 168.875 509.22917 168.99219 509.5026 169.14844 509.82812 C 169.46094 510.46615 169.85156 510.78516 170.32031 510.78516 C 170.64583 510.78516 170.92578 510.48568 171.16016 509.88672 C 171.39453 509.28776 171.51172 508.79948 171.51172 508.42188 C 171.51172 508.04427 171.31641 507.43229 170.92578 506.58594 C 170.73047 506.15625 170.51562 505.7526 170.28125 505.375 C 170.04688 504.98438 169.79948 504.61979 169.53906 504.28125 C 169.01823 503.60417 168.55599 503.26562 168.15234 503.26562 C 167.39714 503.26562 166.55729 503.66927 165.63281 504.47656 C 164.69531 505.28385 163.89453 506.13021 163.23047 507.01562 C 162.11204 508.55049 161.25131 510.11305 160.53516 511.69141 C 159.87092 512.36866 159.20453 513.03802 158.52344 513.65625 C 157.67708 514.41146 156.82422 515.08203 155.96484 515.66797 C 155.11849 516.24089 154.27865 516.69661 153.44531 517.03516 C 152.61198 517.36068 151.79818 517.52344 151.00391 517.52344 C 150.52214 517.52344 150.08594 517.40625 149.69531 517.17188 C 149.31771 516.92448 148.99219 516.61198 148.71875 516.23438 C 148.45833 515.85677 148.25651 515.4401 148.11328 514.98438 C 147.97005 514.51562 147.89844 514.0599 147.89844 513.61719 C 147.89844 512.83594 147.98307 512.08073 148.15234 511.35156 C 148.33464 510.60938 148.52995 509.78906 148.73828 508.89062 C 148.93359 508.17448 149.03125 507.60156 149.03125 507.17188 C 149.03125 507.01562 148.98568 506.80078 148.89453 506.52734 C 148.80339 506.25391 148.6862 505.98047 148.54297 505.70703 C 148.41276 505.43359 148.26953 505.1862 148.11328 504.96484 C 147.95703 504.74349 147.82031 504.59375 147.70312 504.51562 C 147.46875 504.3724 147.20833 504.26823 146.92188 504.20312 C 146.63542 504.125 146.34245 504.07292 146.04297 504.04688 C 145.74349 504.00781 145.4375 503.98828 145.125 503.98828 L 144.26562 503.98828 C 143.71875 503.98828 143.09375 504.13802 142.39062 504.4375 C 141.6875 504.73698 140.97135 505.13411 140.24219 505.62891 C 139.51302 506.11068 138.8099 506.66406 138.13281 507.28906 C 137.45573 507.90104 136.86979 508.51953 136.375 509.14453 C 135.90625 509.74349 135.42448 510.42708 134.92969 511.19531 C 134.44792 511.96354 134.00521 512.77734 133.60156 513.63672 C 133.21094 514.48307 132.89193 515.35547 132.64453 516.25391 C 132.39714 517.15234 132.27344 518.03125 132.27344 518.89062 C 132.27344 519.32031 132.33203 519.80859 132.44922 520.35547 C 132.57943 520.90234 132.76823 521.41667 133.01562 521.89844 C 133.27604 522.38021 133.59505 522.79036 133.97266 523.12891 C 134.36328 523.45443 134.82552 523.61719 135.35938 523.61719 C 135.71094 523.61719 136.10156 523.5651 136.53125 523.46094 C 136.97396 523.34375 137.41016 523.20052 137.83984 523.03125 C 138.28255 522.84896 138.69922 522.65365 139.08984 522.44531 C 139.49349 522.23698 139.83854 522.04167 140.125 521.85938 C 140.63281 521.52083 141.1276 521.14974 141.60938 520.74609 C 142.09115 520.34245 142.55339 519.92578 142.99609 519.49609 C 143.45182 519.06641 143.88802 518.64323 144.30469 518.22656 C 144.72135 517.79688 145.11849 517.38672 145.49609 516.99609 C 145.6263 517.54297 145.84766 518.04427 146.16016 518.5 C 146.47266 518.95573 146.84375 519.34635 147.27344 519.67188 C 147.70312 519.9974 148.15885 520.2513 148.64062 520.43359 C 149.13542 520.60286 149.6237 520.6875 150.10547 520.6875 C 151.14714 520.70052 152.11068 520.55078 152.99609 520.23828 C 153.89453 519.91276 154.75391 519.48307 155.57422 518.94922 C 156.39453 518.41536 157.1888 517.80339 157.95703 517.11328 C 158.4117 516.70408 158.88026 516.27399 159.34375 515.85156 C 159.28484 516.34378 159.1875 516.83591 159.1875 517.32812 C 159.17448 518.20052 159.29167 519.02734 159.53906 519.80859 C 159.79948 520.58984 160.17057 521.27344 160.65234 521.85938 C 161.14714 522.43229 161.74609 522.88802 162.44922 523.22656 C 163.16536 523.5651 163.97266 523.72135 164.87109 523.69531 C 166.32943 523.69531 167.70964 523.48698 169.01172 523.07031 C 170.32682 522.64062 171.55729 522.07422 172.70312 521.37109 C 173.84896 520.65495 175.09896 519.73698 176.45312 518.61719 C 177.14323 518.04427 177.7487 517.54297 178.26953 517.11328 C 178.80339 516.67057 179.25911 516.29297 179.63672 515.98047 C 179.85807 515.78516 180.11198 515.55729 180.39844 515.29688 C 180.69792 515.02344 181.01693 514.71745 181.35547 514.37891 L 181.58398 514.15039 C 181.54023 514.68308 181.33594 515.18567 181.33594 515.72656 C 181.33594 518.17448 181.90885 520.00391 183.05469 521.21484 C 184.21354 522.42578 185.83464 523.03125 187.91797 523.03125 C 188.88151 523.04427 189.8776 522.90104 190.90625 522.60156 C 191.94792 522.30208 192.98958 521.87891 194.03125 521.33203 C 195.07292 520.77214 196.10156 520.11458 197.11719 519.35938 C 198.14583 518.59115 199.12891 517.77083 200.06641 516.89844 C 201.01693 516.01302 201.90885 515.08203 202.74219 514.10547 C 203.58854 513.12891 204.35026 512.15234 205.02734 511.17578 C 205.3138 510.68099 205.45703 510.33594 205.45703 510.14062 C 205.45703 509.89323 205.37891 509.76953 205.22266 509.76953 C 204.9362 509.76953 204.47396 510.04948 203.83594 510.60938 L 202.78125 511.66406 C 201.89583 512.54948 201.00391 513.39583 200.10547 514.20312 C 199.20703 514.9974 198.20443 515.79818 197.09766 516.60547 C 196.4987 517.03516 195.85417 517.45833 195.16406 517.875 C 194.48698 518.27865 193.78385 518.64323 193.05469 518.96875 C 192.32552 519.28125 191.58333 519.53516 190.82812 519.73047 C 190.07292 519.92578 189.32422 520.02344 188.58203 520.02344 C 187.25391 520.02344 186.20573 519.69792 185.4375 519.04688 C 184.68229 518.38281 184.30469 517.41927 184.30469 516.15625 C 185.26823 515.53125 186.08854 514.9388 186.76562 514.37891 C 187.45573 513.80599 188.08073 513.28516 188.64062 512.81641 C 189.52604 512.07422 190.28125 511.38411 190.90625 510.74609 C 191.53125 510.09505 192.03255 509.47005 192.41016 508.87109 C 192.80078 508.25911 193.07422 507.66667 193.23047 507.09375 C 193.39974 506.50781 193.47135 505.91536 193.44531 505.31641 C 193.41927 504.78255 193.29557 504.29427 193.07422 503.85156 C 192.86589 503.40885 192.57943 502.97917 192.21484 502.5625 C 192.09766 502.41927 191.94141 502.30208 191.74609 502.21094 C 191.55078 502.10677 191.34896 502.02214 191.14062 501.95703 C 190.93229 501.89193 190.73698 501.84635 190.55469 501.82031 C 190.3724 501.79427 190.22917 501.78125 190.125 501.78125 z M 100.69141 504.71094 C 100.84766 504.71094 100.98438 504.75651 101.10156 504.84766 C 101.21875 504.92578 101.32292 505.03646 101.41406 505.17969 C 101.50521 505.32292 101.57031 505.49219 101.60938 505.6875 C 101.66146 505.86979 101.69401 506.05859 101.70703 506.25391 C 101.72005 506.65755 101.64844 507.05469 101.49219 507.44531 C 101.33594 507.83594 101.12109 508.21354 100.84766 508.57812 C 100.58724 508.94271 100.29427 509.29427 99.96875 509.63281 C 99.643229 509.95833 99.324219 510.26432 99.011719 510.55078 C 98.516927 511.00651 97.983073 511.44922 97.410156 511.87891 L 95.535156 513.28516 C 95.58724 512.9987 95.645833 512.67318 95.710938 512.30859 C 95.789062 511.94401 95.873698 511.57943 95.964844 511.21484 C 96.06901 510.83724 96.173177 510.47266 96.277344 510.12109 C 96.394531 509.75651 96.52474 509.43099 96.667969 509.14453 C 97.279948 507.82943 97.93099 506.77474 98.621094 505.98047 C 99.311198 505.17318 100.0013 504.75 100.69141 504.71094 z M 189.51953 504.71094 C 189.67578 504.71094 189.8125 504.75651 189.92969 504.84766 C 190.04688 504.92578 190.15104 505.03646 190.24219 505.17969 C 190.33333 505.32292 190.39844 505.49219 190.4375 505.6875 C 190.48958 505.86979 190.52214 506.05859 190.53516 506.25391 C 190.54818 506.65755 190.47656 507.05469 190.32031 507.44531 C 190.16406 507.83594 189.94922 508.21354 189.67578 508.57812 C 189.41536 508.94271 189.1224 509.29427 188.79688 509.63281 C 188.47135 509.95833 188.15234 510.26432 187.83984 510.55078 C 187.34505 511.00651 186.8112 511.44922 186.23828 511.87891 L 184.36328 513.28516 C 184.41536 512.9987 184.47396 512.67318 184.53906 512.30859 C 184.61719 511.94401 184.70182 511.57943 184.79297 511.21484 C 184.89714 510.83724 185.0013 510.47266 185.10547 510.12109 C 185.22266 509.75651 185.35286 509.43099 185.49609 509.14453 C 186.10807 507.82943 186.75911 506.77474 187.44922 505.98047 C 188.13932 505.17318 188.82943 504.75 189.51953 504.71094 z M 144.34375 506.78125 L 144.96875 506.78125 C 145.17708 506.76823 145.35286 506.86589 145.49609 507.07422 C 145.63932 507.28255 145.72396 507.54948 145.75 507.875 C 145.77604 508.20052 145.78906 508.47396 145.78906 508.69531 C 145.78906 510.77865 145.28125 512.73828 144.26562 514.57422 C 143.5625 515.75911 142.70964 516.80729 141.70703 517.71875 C 140.71745 518.61719 139.61068 519.32682 138.38672 519.84766 C 137.48828 520.22526 136.73958 520.41406 136.14062 520.41406 C 135.95833 520.41406 135.80208 520.34245 135.67188 520.19922 C 135.55469 520.05599 135.45703 519.88672 135.37891 519.69141 C 135.3138 519.48307 135.26172 519.27474 135.22266 519.06641 C 135.19661 518.84505 135.18359 518.66927 135.18359 518.53906 C 135.18359 518.10938 135.2487 517.63411 135.37891 517.11328 C 135.50911 516.57943 135.6849 516.03255 135.90625 515.47266 C 136.1276 514.89974 136.38802 514.32682 136.6875 513.75391 C 136.98698 513.16797 137.29297 512.61458 137.60547 512.09375 C 137.93099 511.5599 138.25651 511.07161 138.58203 510.62891 C 138.92057 510.1862 139.23958 509.8151 139.53906 509.51562 C 139.89062 509.15104 140.2487 508.80599 140.61328 508.48047 C 140.99089 508.14193 141.38151 507.84896 141.78516 507.60156 C 142.1888 507.34115 142.59896 507.13932 143.01562 506.99609 C 143.44531 506.85286 143.88802 506.78125 144.34375 506.78125 z "
             inkscape:radius="2.1502843"
             sodipodi:type="inkscape:offset" />
          <g
             id="text4136"
             style="font-style:normal;font-weight:normal;font-size:40px;line-height:125%;font-family:sans-serif;letter-spacing:0px;word-spacing:0px;fill:#ffffff;fill-opacity:1;stroke:none;stroke-width:1px;stroke-linecap:butt;stroke-linejoin:miter;stroke-opacity:1">
            <path
               id="path4181"
               style="font-style:normal;font-variant:normal;font-weight:normal;font-stretch:normal;font-family:'Segoe Script';-inkscape-font-specification:'Segoe Script';fill:#ffffff;fill-opacity:1"
               d="m 116.62988,510.13995 q 0,0.29297 -0.42969,1.03516 -1.01563,1.46484 -2.28516,2.92969 -1.25,1.46484 -2.67578,2.79297 -1.40625,1.30859 -2.94922,2.46093 -1.52344,1.13282 -3.08594,1.97266 -1.5625,0.82031 -3.125,1.26953 -1.54296,0.44922 -2.988277,0.42969 -3.125,0 -4.863282,-1.81641 -1.71875,-1.8164 -1.71875,-5.48828 0,-3.06641 0.9375,-5.95703 0.957032,-2.89063 3.242188,-5.56641 0.429687,-0.46875 0.957031,-0.89843 0.546875,-0.42969 1.132813,-0.76172 0.605468,-0.33203 1.230467,-0.52735 0.64453,-0.19531 1.28906,-0.23437 0.15625,0 0.42969,0.0391 0.27344,0.0391 0.58594,0.13672 0.3125,0.0977 0.60547,0.25391 0.29297,0.13671 0.46875,0.35156 0.54687,0.625 0.85937,1.28906 0.33203,0.66406 0.3711,1.46484 0.0391,0.89844 -0.21485,1.77735 -0.23437,0.85937 -0.82031,1.77734 -0.56641,0.89844 -1.50391,1.875 -0.9375,0.95703 -2.265621,2.07031 -0.839844,0.70313 -1.875,1.5625 -1.015625,0.83985 -2.460938,1.77735 0,1.89453 1.132813,2.89062 1.152344,0.97657 3.144531,0.97657 1.113285,0 2.246095,-0.29297 1.13281,-0.29297 2.22656,-0.76172 1.09375,-0.48828 2.10938,-1.09375 1.03515,-0.625 1.93359,-1.26953 1.66016,-1.21094 3.00781,-2.40235 1.34766,-1.21093 2.67578,-2.53906 l 1.05469,-1.05469 q 0.95703,-0.83984 1.38672,-0.83984 0.23438,0 0.23438,0.37109 z M 101.708,506.25323 q -0.0195,-0.29296 -0.0977,-0.5664 -0.0586,-0.29297 -0.19531,-0.50781 -0.13672,-0.21485 -0.3125,-0.33204 -0.17578,-0.13671 -0.41015,-0.13671 -1.035161,0.0586 -2.070317,1.26953 -1.035157,1.1914 -1.953125,3.16406 -0.214844,0.42969 -0.390625,0.97656 -0.15625,0.52735 -0.3125,1.09375 -0.136719,0.54688 -0.253907,1.09375 -0.09766,0.54688 -0.175781,0.97656 1.015625,-0.76171 1.875,-1.40625 0.859375,-0.64453 1.601563,-1.32812 0.46875,-0.42969 0.957031,-0.91797 0.488281,-0.50781 0.878911,-1.05469 0.41015,-0.54687 0.64453,-1.13281 0.23437,-0.58594 0.21484,-1.19141 z"
               inkscape:connector-curvature="0" />
            <path
               id="path4183"
               style="font-style:normal;font-variant:normal;font-weight:normal;font-stretch:normal;font-family:'Segoe Script';-inkscape-font-specification:'Segoe Script';fill:#ffffff;fill-opacity:1"
               d="m 132.50878,507.8548 q 0,0.11718 -0.0195,0.35156 -0.0195,0.21484 -0.0977,0.44922 -0.0781,0.21484 -0.19531,0.39062 -0.0976,0.17578 -0.27344,0.17578 -0.11718,0 -0.39062,0 -0.27344,-0.0195 -0.58594,-0.0391 -0.29297,-0.0195 -0.5664,-0.0195 -0.27344,-0.0195 -0.39063,-0.0195 -3.73047,0.23437 -6.21094,2.73437 -2.4414,2.44141 -4.21875,6.52344 -0.33203,0.83985 -0.66406,1.73828 -0.3125,0.89844 -0.60547,1.89453 -0.15625,0.54688 -0.23437,0.97657 -0.0586,0.41015 -0.21485,0.8789 -0.0391,0.15625 -0.33203,0.29297 -0.29297,0.15625 -0.66406,0.27344 -0.35156,0.11719 -0.68359,0.19531 -0.33204,0.0781 -0.44922,0.0781 -1.34766,0.0781 -1.52344,-2.79297 -0.0586,-0.78125 -0.0586,-1.40625 0.0195,-0.64453 0.0586,-1.23047 0.0391,-0.60547 0.0977,-1.25 0.0781,-0.66406 0.15625,-1.48438 0.0977,-1.01562 0.23437,-2.34375 0.13672,-1.32812 0.3125,-2.67578 0.17578,-1.34765 0.37109,-2.55859 0.19532,-1.23047 0.41016,-2.03125 0.21484,-0.91797 0.58594,-1.36719 0.39062,-0.44922 1.13281,-0.48828 0.19531,0 0.41016,0.11719 0.23437,0.0976 0.41015,0.27344 0.19532,0.17578 0.3125,0.37109 0.13672,0.19531 0.15625,0.35156 0.0195,0.48828 -0.0195,1.07422 -0.0391,0.56641 -0.13672,1.19141 -0.0977,0.60547 -0.23437,1.23047 -0.13672,0.625 -0.27344,1.1914 -0.27344,1.11328 -0.42969,1.91406 -0.13672,0.78125 -0.23437,1.52344 -0.0977,0.74219 -0.19531,1.60156 -0.0977,0.83985 -0.25391,2.08985 0.33203,-0.74219 0.56641,-1.26953 0.2539,-0.52735 0.44921,-0.91797 0.19532,-0.41016 0.35157,-0.72266 0.17578,-0.3125 0.37109,-0.64453 0.19531,-0.35156 0.42969,-0.76172 0.23437,-0.41015 0.58594,-0.99609 1.36718,-2.26563 2.92968,-3.69141 1.5625,-1.44531 3.00782,-2.07031 1.64062,-0.78125 2.69531,-0.83984 0.50781,-0.0195 1.21094,0.0586 0.70312,0.0781 1.34765,0.29297 0.64453,0.21484 1.09375,0.5664 0.46875,0.33204 0.46875,0.82032 z"
               inkscape:connector-curvature="0" />
            <path
               id="path4185"
               style="font-style:normal;font-variant:normal;font-weight:normal;font-stretch:normal;font-family:'Segoe Script';-inkscape-font-specification:'Segoe Script';fill:#ffffff;fill-opacity:1"
               d="m 163.17284,510.31573 q 0,0.23438 -0.0586,0.56641 -0.0586,0.3125 -0.17578,0.64453 -0.0977,0.33203 -0.23438,0.64453 -0.11718,0.29297 -0.2539,0.46875 -0.11719,0.15625 -0.35156,0.42969 -0.21485,0.25391 -0.48829,0.56641 -0.27343,0.3125 -0.60546,0.66406 -0.3125,0.33203 -0.66407,0.64453 -1.21093,1.11328 -2.38281,2.16797 -1.15234,1.03516 -2.38281,1.83594 -1.23047,0.80078 -2.57813,1.28906 -1.32812,0.46875 -2.89062,0.44922 -0.72266,0 -1.46485,-0.25391 -0.72265,-0.27344 -1.36718,-0.76172 -0.64453,-0.48828 -1.11328,-1.17187 -0.46875,-0.6836 -0.66407,-1.50391 -0.5664,0.58594 -1.1914,1.23047 -0.625,0.625 -1.3086,1.26953 -0.66406,0.64453 -1.38672,1.25 -0.72265,0.60547 -1.48437,1.11328 -0.42969,0.27344 -1.03516,0.58594 -0.58593,0.3125 -1.25,0.58594 -0.64453,0.2539 -1.30859,0.42969 -0.64453,0.15625 -1.17188,0.15625 -0.80078,0 -1.38671,-0.48829 -0.56641,-0.50781 -0.95704,-1.23046 -0.37109,-0.72266 -0.5664,-1.54297 -0.17578,-0.82032 -0.17578,-1.46485 0,-1.28906 0.37109,-2.63672 0.37109,-1.34765 0.95703,-2.61718 0.60547,-1.28907 1.32813,-2.44141 0.74218,-1.15234 1.44531,-2.05078 0.74219,-0.9375 1.75781,-1.85547 1.01563,-0.9375 2.10938,-1.66016 1.09375,-0.74218 2.14843,-1.1914 1.05469,-0.44922 1.875,-0.44922 0.41016,0 0.85938,0 0.46875,0 0.91797,0.0586 0.44922,0.0391 0.8789,0.15625 0.42969,0.0977 0.78125,0.3125 0.17579,0.11719 0.41016,0.44922 0.23438,0.33203 0.42969,0.74219 0.21484,0.41016 0.35156,0.82031 0.13672,0.41016 0.13672,0.64453 0,0.64453 -0.29297,1.71875 -0.3125,1.34766 -0.58594,2.46094 -0.2539,1.09375 -0.2539,2.26563 0,0.66406 0.21484,1.36718 0.21484,0.6836 0.60547,1.25 0.41016,0.56641 0.97656,0.9375 0.58594,0.35157 1.3086,0.35157 1.1914,0 2.4414,-0.48829 1.25,-0.50781 2.51953,-1.36718 1.28907,-0.87891 2.5586,-2.01172 1.26953,-1.15235 2.5,-2.44141 0.0977,-0.11719 0.33203,-0.39062 0.2539,-0.29297 0.50781,-0.56641 0.27344,-0.29297 0.52734,-0.50781 0.25391,-0.23438 0.3711,-0.23438 0.41015,0 0.41015,0.80078 z m -17.38281,-1.62109 q 0,-0.33203 -0.0391,-0.82031 -0.0391,-0.48828 -0.25391,-0.80078 -0.21484,-0.3125 -0.52734,-0.29297 -0.3125,0 -0.625,0 -0.68359,0 -1.32813,0.21484 -0.625,0.21485 -1.23046,0.60547 -0.60547,0.37109 -1.17188,0.87891 -0.54687,0.48828 -1.07422,1.03515 -0.44922,0.44922 -0.95703,1.11328 -0.48828,0.66407 -0.97656,1.46485 -0.46875,0.78125 -0.91797,1.66015 -0.44922,0.85938 -0.78125,1.71875 -0.33203,0.83985 -0.52734,1.64063 -0.19532,0.78125 -0.19532,1.42578 0,0.19531 0.0391,0.52734 0.0586,0.3125 0.15625,0.625 0.11718,0.29297 0.29296,0.50782 0.19532,0.21484 0.46875,0.21484 0.89844,0 2.2461,-0.56641 1.83594,-0.78125 3.32031,-2.1289 1.50391,-1.36719 2.55859,-3.14453 1.52344,-2.75391 1.52344,-5.87891 z"
               inkscape:connector-curvature="0" />
            <path
               id="path4187"
               style="font-style:normal;font-variant:normal;font-weight:normal;font-stretch:normal;font-family:'Segoe Script';-inkscape-font-specification:'Segoe Script';fill:#ffffff;fill-opacity:1"
               d="m 184.87206,510.17902 q 0,0.70312 -0.50781,1.26953 -0.17578,0.19531 -0.54687,0.52734 -0.3711,0.3125 -0.66407,0.60547 l -1.79687,1.79687 q -0.50781,0.50782 -0.95703,0.91797 -0.42969,0.39063 -0.76172,0.6836 -0.56641,0.46875 -1.36719,1.13281 -0.78125,0.64453 -1.81641,1.50391 -2.03125,1.67968 -3.75,2.7539 -1.71875,1.05469 -3.6914,1.69922 -1.95313,0.625 -4.14063,0.625 -1.34765,0.0391 -2.42187,-0.46875 -1.05469,-0.50781 -1.79688,-1.36719 -0.72265,-0.8789 -1.11328,-2.05078 -0.37109,-1.17187 -0.35156,-2.48047 0,-2.59765 1.09375,-5.19531 1.11328,-2.59766 2.94922,-5.11719 0.99609,-1.32812 2.40234,-2.53906 1.38672,-1.21094 2.51953,-1.21094 0.60547,0 1.38672,1.01563 0.39063,0.50781 0.74219,1.09375 0.35156,0.5664 0.64453,1.21094 0.58594,1.26953 0.58594,1.83593 0,0.56641 -0.35156,1.46485 -0.35157,0.89843 -0.83985,0.89843 -0.70312,0 -1.17187,-0.95703 -0.23438,-0.48828 -0.35157,-0.82031 -0.0977,-0.35156 -0.23437,-0.74219 -0.44922,-1.17187 -0.76172,-1.67968 -1.28906,0.23437 -2.14844,1.26953 -0.41015,0.50781 -0.85937,1.23047 -0.42969,0.70312 -0.91797,1.60156 -0.39063,0.70312 -0.72266,1.58203 -0.33203,0.87891 -0.5664,1.81641 -0.23438,0.91796 -0.3711,1.85546 -0.13672,0.91797 -0.13672,1.71875 0,1.13282 0.97657,2.20704 0.99609,1.03515 2.14843,1.03515 2.5,0 4.7461,-0.8789 2.24609,-0.87891 4.3164,-2.34375 2.05079,-1.42579 4.16016,-3.33985 1.05469,-0.95703 1.99219,-1.79687 0.95703,-0.85938 1.8164,-1.64063 1.42579,-1.25 2.36329,-1.25 0.27343,0 0.27343,0.52735 z"
               inkscape:connector-curvature="0" />
            <path
               id="path4189"
               style="font-style:normal;font-variant:normal;font-weight:normal;font-stretch:normal;font-family:'Segoe Script';-inkscape-font-specification:'Segoe Script';fill:#ffffff;fill-opacity:1"
               d="m 205.458,510.13995 q 0,0.29297 -0.42969,1.03516 -1.01562,1.46484 -2.28515,2.92969 -1.25,1.46484 -2.67578,2.79297 -1.40625,1.30859 -2.94922,2.46093 -1.52344,1.13282 -3.08594,1.97266 -1.5625,0.82031 -3.125,1.26953 -1.54297,0.44922 -2.98828,0.42969 -3.125,0 -4.86328,-1.81641 -1.71875,-1.8164 -1.71875,-5.48828 0,-3.06641 0.9375,-5.95703 0.95703,-2.89063 3.24218,-5.56641 0.42969,-0.46875 0.95704,-0.89843 0.54687,-0.42969 1.13281,-0.76172 0.60547,-0.33203 1.23047,-0.52735 0.64453,-0.19531 1.28906,-0.23437 0.15625,0 0.42969,0.0391 0.27343,0.0391 0.58593,0.13672 0.3125,0.0977 0.60547,0.25391 0.29297,0.13671 0.46875,0.35156 0.54688,0.625 0.85938,1.28906 0.33203,0.66406 0.37109,1.46484 0.0391,0.89844 -0.21484,1.77735 -0.23438,0.85937 -0.82031,1.77734 -0.56641,0.89844 -1.50391,1.875 -0.9375,0.95703 -2.26563,2.07031 -0.83984,0.70313 -1.875,1.5625 -1.01562,0.83985 -2.46093,1.77735 0,1.89453 1.13281,2.89062 1.15234,0.97657 3.14453,0.97657 1.11328,0 2.24609,-0.29297 1.13282,-0.29297 2.22657,-0.76172 1.09375,-0.48828 2.10937,-1.09375 1.03516,-0.625 1.9336,-1.26953 1.66015,-1.21094 3.00781,-2.40235 1.34765,-1.21093 2.67578,-2.53906 l 1.05469,-1.05469 q 0.95703,-0.83984 1.38672,-0.83984 0.23437,0 0.23437,0.37109 z m -14.92187,-3.88672 q -0.0195,-0.29296 -0.0977,-0.5664 -0.0586,-0.29297 -0.19531,-0.50781 -0.13672,-0.21485 -0.3125,-0.33204 -0.17578,-0.13671 -0.41016,-0.13671 -1.03516,0.0586 -2.07031,1.26953 -1.03516,1.1914 -1.95313,3.16406 -0.21484,0.42969 -0.39062,0.97656 -0.15625,0.52735 -0.3125,1.09375 -0.13672,0.54688 -0.25391,1.09375 -0.0976,0.54688 -0.17578,0.97656 1.01563,-0.76171 1.875,-1.40625 0.85938,-0.64453 1.60156,-1.32812 0.46875,-0.42969 0.95703,-0.91797 0.48829,-0.50781 0.87891,-1.05469 0.41016,-0.54687 0.64453,-1.13281 0.23438,-0.58594 0.21485,-1.19141 z"
               inkscape:connector-curvature="0" />
          </g>
          <path
             transform="translate(-1.9373848e-7,-3.027878e-6)"
             sodipodi:type="inkscape:offset"
             inkscape:radius="2.3214273"
             inkscape:original="M 110.1875 467.75 C 97.788883 477.13972 87.393014 487.13344 78.746094 500.33398 C 76.261824 504.12651 73.416876 510.51491 70.816406 513.48242 C 67.090023 506.19531 65.112946 497.51699 60.621094 490.94141 C 57.060513 488.66171 53.558519 493.39379 55.941406 496.60938 C 60.358486 505.387 62.458421 515.47452 68.275391 523.53125 C 71.134321 524.85312 74.308731 524.63134 74.494141 520.90625 C 80.689311 511.69652 87.213529 498.43218 98.667969 487.9043 C 104.51849 482.52703 106.69178 479.89897 114.82227 472.98047 C 114.90677 470.52515 113.20571 466.69576 110.1875 467.75 z "
             xlink:href="#path4192-9"
             id="path4196-5"
             inkscape:href="#path4192-9"
             d="m 111.31836,465.26367 c -0.63167,-0.0166 -1.28065,0.0798 -1.89648,0.29492 a 2.3216595,2.3216595 0 0 0 -0.63672,0.33985 c -12.53273,9.49128 -23.160504,19.69934 -31.980472,33.16406 -1.88468,2.87718 -3.800793,6.45925 -5.552735,9.41406 -2.578694,-6.15863 -4.710489,-12.98181 -8.714844,-18.84375 a 2.3216595,2.3216595 0 0 0 -0.664062,-0.64648 c -1.342817,-0.85975 -2.931144,-1.14498 -4.316406,-0.8418 -1.385263,0.30319 -2.525024,1.11391 -3.328125,2.13477 -1.606203,2.0417 -1.991995,5.23037 -0.152344,7.71289 l -0.208984,-0.33985 c 4.228854,8.40358 6.325304,18.65092 12.52539,27.23828 a 2.3216595,2.3216595 0 0 0 0.908203,0.74805 c 1.771431,0.81905 3.73976,1.30556 5.759766,0.69336 1.792876,-0.54336 3.196888,-2.34463 3.591797,-4.49805 6.279142,-9.41118 12.650171,-22.16954 23.585936,-32.2207 5.91709,-5.43846 8.02288,-8.00245 16.08789,-14.86523 a 2.3216595,2.3216595 0 0 0 0.81641,-1.6875 c 0.0621,-1.80427 -0.41495,-3.6869 -1.57227,-5.3418 -0.57866,-0.82745 -1.37082,-1.61004 -2.46093,-2.07617 -0.54506,-0.23307 -1.15935,-0.36232 -1.79102,-0.37891 z"
             style="font-style:normal;font-variant:normal;font-weight:normal;font-stretch:normal;font-size:medium;line-height:125%;font-family:'Segoe Script';-inkscape-font-specification:'Segoe Script';letter-spacing:0px;word-spacing:0px;fill:#000000;fill-opacity:1;stroke:none;stroke-width:1px;stroke-linecap:butt;stroke-linejoin:miter;stroke-opacity:1" />
          <path
             d="m 110.18829,467.74941 c -12.398617,9.38972 -22.794337,19.38393 -31.441257,32.58447 -2.48427,3.79253 -5.32937,10.18044 -7.92984,13.14795 -3.726383,-7.28711 -5.703459,-15.96543 -10.195311,-22.54101 -3.560581,-2.2797 -7.062575,2.45239 -4.679688,5.66797 4.41708,8.77763 6.517019,18.86514 12.333989,26.92187 2.85893,1.32187 6.03334,1.10009 6.21875,-2.625 6.19517,-9.20973 12.71827,-22.47296 24.17271,-33.00084 5.850517,-5.37727 8.024917,-8.00644 16.155407,-14.92494 0.0845,-2.45532 -1.61655,-6.28471 -4.63476,-5.23047 z"
             id="path4192-9"
             inkscape:connector-curvature="0"
             sodipodi:nodetypes="cscccccscc"
             style="font-style:normal;font-variant:normal;font-weight:normal;font-stretch:normal;font-size:medium;line-height:125%;font-family:'Segoe Script';-inkscape-font-specification:'Segoe Script';letter-spacing:0px;word-spacing:0px;fill:#ffffff;fill-opacity:1;stroke:none;stroke-width:1px;stroke-linecap:butt;stroke-linejoin:miter;stroke-opacity:1" />
        </g>
      </g>
    </g>
  </g>
</svg>
